<?xml version="1.0" encoding="utf-8"?>
<!-- Generator: Adobe Illustrator 24.0.1, SVG Export Plug-In . SVG Version: 6.00 Build 0)  -->
<svg version="1.1" id="Layer_1" xmlns="http://www.w3.org/2000/svg" xmlns:xlink="http://www.w3.org/1999/xlink" x="0px" y="0px"
	 viewBox="0 0 456.71 103.21" style="enable-background:new 0 0 456.71 103.21;" xml:space="preserve">
<style type="text/css">
	.st0{fill:#FF8086;}
	.st1{fill:#67595E;}
</style>
<g>
	<g>
		<g>
			<path class="st0" d="M106.6,15.67c9.13-3.01,18.37-5.67,27.55-8.49c0.03,24.85,0,49.7,0.01,74.55c2.98-1.5,5.97-2.96,9.03-4.29
				c-3.51,5.46-7.06,11.05-11.84,15.51c-3.21,3.1-8.77,4.38-12.44,1.34c-3.39-3.11-3.08-8.09-3.41-12.28
				c-3.94,4.4-7.79,8.94-12.39,12.67c-2.33,2.18-5.62,0.52-8.22-0.21c-7.86-2.56-12.97-10.18-14.3-18.09
				c-1.64-9.65-0.87-20.26,4.48-28.7c6.06-9.58,17.98-14.57,29.1-13.01c0-5.37,0.01-10.74-0.02-16.11
				C111.61,17.66,109.12,16.64,106.6,15.67z M103.87,38.36c-2.68,2.14-3.37,5.75-3.91,8.95c-0.92,8.16-0.66,16.48,0.55,24.6
				c0.8,3.81,1.71,8.27,5.22,10.53c2.77,1.7,5.82-0.01,8.43-1.11c0.03-9.65-0.03-19.31,0.05-28.96c0.02-4.53,0.02-9.64-3.17-13.23
				C109.29,37.09,106.01,36.77,103.87,38.36z"/>
		</g>
		<path class="st0" d="M8.21,18.8c20.71-0.19,41.43-0.03,62.15-0.08c-0.07,10.78,0.18,21.56-0.14,32.33
			c-6.31-8.2-10.51-17.95-17.7-25.46c-4.12-4.35-10.38-4.76-15.98-4.89c0,11.58-0.03,23.17,0.01,34.75
			c3.03-0.41,6.34-0.46,8.86-2.44c4.75-3.51,7.24-9.05,10.39-13.86c0.14,11.34,0.17,22.7-0.02,34.04
			c-3.34-4.84-5.98-10.46-10.93-13.91c-2.39-1.81-5.49-1.85-8.3-2.34c-0.03,11.82-0.02,23.65-0.01,35.48
			c5.97-0.1,12.75-0.51,17.02-5.28c6.96-7.55,11.21-17.08,17.34-25.25c0.27,10.81,0.06,21.63,0.13,32.45
			c-20.96-0.04-41.92,0.08-62.88-0.07c2.08-2.18,4.23-4.29,6.44-6.35c0.16-20.86-0.01-41.73,0.08-62.59
			C12.42,23.25,10.34,21,8.21,18.8z"/>
		<path class="st0" d="M142.97,34.83c8.47-0.21,16.96-0.06,25.44-0.09c0,12.86,0.01,25.72-0.02,38.58c0.14,2.33-0.07,5,1.48,6.94
			c3.3,3.91,11.59,1.52,11.16-3.95c0-12.03-0.01-24.06-0.02-36.09c-1.93-1.77-3.84-3.56-5.71-5.39c8.52-0.21,17.04-0.05,25.56-0.1
			c0.03,15.67,0,31.34,0.02,47.02c2.96-1.51,5.95-2.96,9.01-4.26c-3.56,5.56-7.08,11.34-12.06,15.77
			c-3.32,3.06-9.14,4.03-12.51,0.54c-3.28-3.81-2.77-9.21-2.83-13.89c-4.34,5.63-8.46,11.98-14.83,15.49
			c-5.99,1.53-13.09-1.31-16.15-6.78c-2.56-4.29-2.82-9.43-2.86-14.29c-0.02-10.35-0.09-20.7-0.07-31.05
			C149.19,39.33,145.23,37.31,142.97,34.83z"/>
	</g>
	<g>
		<path class="st1" d="M214.55,40.06c5.07-12.67,17.95-21.04,31.21-22.72c11.43-0.83,23.94,3.51,30.45,13.38
			c-6.27,6.17-12.51,12.37-18.86,18.46c-2.85-8.44-5.82-17.6-13.06-23.35c-3.25-2.55-8.17-4.46-11.97-1.95
			c-4.2,2.99-4.79,8.72-4.67,13.47c0.6,11.25,4.65,22.55,12.26,30.97c5.77,6.41,14.13,10.34,22.74,10.69
			c4.58,0.41,9.01-0.97,13.43-1.91c-6.08,5.54-12.86,10.24-19.6,14.93c-2.37,1.4-4.69,3.44-7.57,3.47
			c-11.78-0.45-23.62-6.03-30.39-15.87C210.68,68.24,209.65,52.83,214.55,40.06z"/>
		<g>
			<path class="st1" d="M304.16,35.73c6.69-3,14.95-3.92,21.53-0.19c5.36,3.24,6.02,10.19,6.03,15.84
				c-0.2,10.07-1.05,20.12-1.37,30.19c2.99-1.55,5.98-3.11,9.06-4.49c-3.55,5.59-7.15,11.32-12.08,15.81
				c-3.32,3.1-9.27,4.05-12.58,0.45c-3.15-3.74-2.53-8.98-2.89-13.53c-2.57,4.45-4.81,9.38-9.06,12.52
				c-5.27,4.06-13.37,4.82-18.88,0.83c-4.35-3.24-5.07-9.43-3.41-14.29c1.67-4.8,5.66-8.35,9.86-10.99
				c6.68-4.12,14.04-6.9,21.17-10.13c-0.42-5.66-0.5-12.11-4.65-16.48c-2.41-2.63-7.35-2.02-8.6,1.46
				c-1.73,4.93,0.08,10.17,1.24,15.01c-7.09,1.94-14.12,4.07-21.24,5.87C283.47,51.83,292.1,40.92,304.16,35.73z M299.23,72.68
				c-1.51,3.4-0.53,8.78,3.71,9.5c3.7,0.15,6.96-2.91,8.14-6.22c0.48-5.21,0.15-10.46,0.35-15.68
				C306.81,63.74,301.57,67.16,299.23,72.68z"/>
		</g>
		<path class="st1" d="M350.28,35.89c3.27-2.94,8.99-3.74,12.22-0.35c3.31,3.81,2.58,9.25,2.94,13.93
			c4.56-5.51,7.97-11.96,13.38-16.73c3.24,2.21,5.97,5.13,9.33,7.17c1.65,1.06,3.44-0.16,5.15-0.42
			c-2.95,5.68-5.58,12.66-11.89,15.33c-5.34,1.34-7.54-5.94-12.52-6.04c-1.49,1.01-2.3,2.67-2.13,4.48
			c-0.02,12.03,0,24.07,0.01,36.11c1.91,1.6,3.78,3.25,5.64,4.91c-10.37,0.11-20.74,0.09-31.11,0.01c1.87-1.73,3.8-3.38,5.73-5.05
			c0.05-13.93,0-27.86,0.02-41.79c-3.01,1.51-6.05,2.98-9.17,4.26C341.6,46.16,345.19,40.32,350.28,35.89z"/>
		<g>
			<path class="st1" d="M415.67,34.47c6.35-2.13,13.62-1.76,19.53,1.48c6.19,3.42,9.51,10.55,9.79,17.42
				c-0.97,2-3.06,3.11-4.87,4.26c-4.22,2.32-8.68,4.47-13.46,5.28c-5.19,0.45-10.4,0.06-15.59,0.21
				c3.88,8.47,11.02,16.51,20.77,17.63c5.02,1.01,9.78-1.23,14.35-2.96c-5.19,6.1-10.84,11.95-17.45,16.52
				c-3.5,2.59-8.06,1.65-12.01,0.94c-9.94-1.94-19.03-9.02-22.3-18.76c-2.67-7.97-2.35-16.96,0.88-24.73
				C398.92,43.19,406.93,37.14,415.67,34.47z M408.29,43.71c-1.36,5.83,0.21,11.79,1.97,17.35c4.93,0,9.86,0.01,14.79,0
				c-0.39-6.07-1.12-12.37-4.26-17.72c-1.5-2.52-3.87-4.99-7-5.07C410.8,38.2,408.9,41.11,408.29,43.71z"/>
		</g>
	</g>
</g>
</svg>
